<svg width="2676" height="528" viewBox="0 0 2676 528" fill="none" xmlns="http://www.w3.org/2000/svg">
<path d="M446.4 2.86998V378.62L84.04 19.13C70.65 5.66998 59.32 0.72998 45.92 0.72998C17.66 0.72998 0 21.19 0 54.45V520.64H85.44V144.82L446.4 507.91C459.13 520.64 472.53 526.97 487.39 526.97C513.52 526.97 531.91 507.18 531.91 473.32V2.86998H446.4Z" fill="#1D1D1B"/>
<path d="M966.31 28.99C955.71 11.33 943.05 0 923.26 0C903.47 0 890.07 11.33 879.47 28.99L584.16 520.64H686.6L919.73 126.49L1034.16 318.63L1077.21 391.34L1154.25 520.63H1262.28L966.31 28.99Z" fill="#1D1D1B"/>
<path d="M1692.56 7.13L1460.16 402.68L1227.03 7.13H1117.53L1412.77 498.72C1423.37 516.38 1436.83 527.71 1456.56 527.71C1474.95 527.71 1489.08 516.38 1499.68 498.72L1795.66 7.13H1692.56Z" fill="#1D1D1B"/>
<path d="M1855.78 7.13V43.19C1872.57 54.45 1914.56 82.64 1945.49 103.37V7.13H1855.78Z" fill="#E20613"/>
<path d="M1855.78 67.25V520.65H1945.49V127.36C1919.36 109.9 1879.11 82.91 1855.78 67.24V67.25Z" fill="#1D1D1B"/>
<path d="M2579.09 445.73C2623.61 399.14 2650.4 333.43 2650.4 258.59C2650.4 109.5 2547.3 7.13 2398.94 7.13H2273.91C2130.55 7.13 2024.58 107.37 2024.58 258.59C2024.58 409.81 2130.55 520.64 2273.91 520.64H2398.94C2444.19 520.64 2485.85 509.31 2521.17 490.25L2556.49 520.64H2675.85L2579.08 445.73H2579.09ZM2509.18 389.21L2413.81 308.7H2295.11L2443.47 425.27C2429.34 428.8 2414.48 430.93 2398.95 430.93H2273.92C2181.41 430.93 2114.3 359.55 2114.3 262.78C2114.3 166.01 2182.08 96.76 2273.92 96.76H2398.95C2493.59 96.76 2560.7 166.01 2560.7 262.78C2560.7 314.36 2540.97 358.88 2509.18 389.21Z" fill="#1D1D1B"/>
<path d="M1056.11 520.64H784.73L920.02 291.92L986.42 403.42L1011.41 445.61L1056.11 520.64Z" fill="#E20613"/>
</svg>
